# Blender v3.6.5 OBJ File: ''
# www.blender.org
mtllib sorakaiKeyy.mtl
o Cylinder
v 0.054012 -0.844656 -2.476217
v 0.054012 -0.690445 -2.476217
v -0.054013 -0.690445 -2.476217
v -0.054013 -0.844656 -2.476217
v 0.054012 -0.844656 -2.180353
v -0.054013 -0.844656 -2.180353
v -0.054013 -0.690445 -2.180353
v 0.054012 -0.690445 -2.180353
v -0.054012 1.105441 1.495842
v 0.054013 1.105441 1.495842
v 0.054013 1.053183 1.183651
v -0.054012 1.053183 1.183651
v 0.054012 0.836411 0.918989
v -0.054012 0.836411 0.918989
v 0.054012 0.511987 0.711097
v -0.054012 0.511987 0.711097
v 0.054012 0.129304 0.711097
v 0.054012 0.129304 0.646013
v 0.054012 0.344778 0.646013
v -0.054012 -0.253380 0.711097
v -0.054012 0.129304 0.711097
v -0.054012 0.129304 0.646013
v -0.054012 -0.086170 0.646013
v 0.054012 -0.253380 0.711097
v 0.054012 -0.577803 0.918989
v -0.054012 -0.577803 0.918989
v 0.054012 -0.794576 1.183651
v -0.054012 -0.794576 1.183651
v 0.054012 -0.837026 1.495842
v -0.054012 -0.837026 1.495842
v 0.054012 -0.794576 1.808032
v -0.054012 -0.794576 1.808032
v 0.054012 -0.577803 2.072695
v -0.054012 -0.577803 2.072695
v 0.054012 -0.253380 2.249537
v -0.054012 -0.253380 2.249537
v 0.054013 0.129304 2.311635
v -0.054012 0.129304 2.311635
v 0.054013 0.511987 2.249537
v -0.054012 0.511987 2.249537
v 0.054013 0.836411 2.072695
v -0.054012 0.836411 2.072695
v -0.086920 0.950458 1.218363
v -0.086920 1.018114 1.495842
v 0.054013 1.053183 1.808032
v -0.054012 1.053183 1.808032
v -0.086920 0.757788 2.008555
v -0.086920 0.469437 2.165734
v -0.086920 0.469437 0.825950
v -0.103583 0.129304 0.770756
v -0.130622 0.129304 1.135508
v -0.130622 0.406388 1.018626
v 0.086920 -0.499180 2.008555
v 0.086920 -0.691850 1.773320
v 0.130622 -0.506823 1.710797
v 0.130622 -0.357567 1.831170
v 0.103583 0.129304 0.770756
v 0.086920 -0.210829 0.825950
v 0.086920 0.469437 2.165734
v 0.086920 0.757788 2.008555
v 0.086920 1.018114 1.495842
v 0.086920 0.950458 1.218363
v -0.086920 -0.499180 2.008555
v -0.086920 -0.691850 1.773320
v -0.086920 -0.499180 0.983129
v -0.086920 -0.210829 0.825950
v -0.086920 0.950458 1.773320
v 0.086920 -0.499180 0.983129
v 0.086920 0.950458 1.773320
v -0.086920 0.757788 0.983129
v -0.086920 -0.210829 2.165734
v 0.086920 0.757788 0.983129
v 0.086920 -0.210829 2.165734
v -0.086920 -0.691850 1.218363
v 0.086920 -0.691850 1.218363
v -0.086920 0.129304 2.220927
v 0.086920 0.469437 0.825950
v 0.086920 0.129304 2.220927
v -0.086920 -0.759506 1.495842
v 0.086920 -0.759506 1.495842
v -0.130622 -0.134189 1.926901
v -0.130622 -0.357567 1.831170
v 0.130622 0.406388 1.018626
v 0.130622 0.129304 1.135508
v 0.130622 -0.134189 1.926901
v -0.130622 -0.196650 1.018626
v -0.130622 0.129304 1.770356
v 0.130622 -0.196650 1.018626
v 0.130622 0.129304 1.770356
v -0.130622 -0.357567 1.098656
v -0.130622 0.392797 1.926901
v 0.130622 -0.357567 1.098656
v 0.130622 0.392797 1.926901
v -0.130622 -0.506823 1.280886
v -0.130622 0.616175 1.831170
v 0.130622 -0.506823 1.280886
v -0.130622 0.765431 1.280886
v -0.130622 0.817843 1.495842
v 0.130622 0.616175 1.831170
v -0.130622 -0.559235 1.495842
v 0.130622 0.817843 1.495842
v 0.130622 0.765431 1.280886
v -0.130622 0.765431 1.710797
v 0.130622 -0.559235 1.495842
v -0.130622 0.616175 1.098656
v 0.130622 0.765431 1.710797
v -0.130622 -0.506823 1.710797
v 0.130622 0.616175 1.098656
v -0.054012 0.129304 0.554950
v -0.054012 -0.063875 0.554950
v 0.054012 -0.086170 0.646013
v 0.054012 -0.063875 0.554950
v -0.054012 0.344778 0.646013
v -0.054012 0.322483 0.554950
v -0.054012 0.361852 -1.566506
v -0.054012 0.129304 -1.566506
v 0.054012 0.129304 0.554950
v 0.054012 -0.103244 -1.566506
v 0.054012 0.129304 -1.566506
v 0.054012 0.322483 0.554950
v -0.054012 -0.103244 -1.566506
v -0.054012 0.129304 -1.694153
v -0.054012 -0.159588 -1.694153
v 0.054012 -0.159588 -1.694153
v 0.054012 0.361852 -1.566506
v -0.054012 0.418196 -1.694153
v -0.054012 0.418196 -1.838660
v -0.054012 0.129304 -1.838660
v 0.054012 0.129304 -1.694153
v 0.054012 -0.159588 -1.838660
v 0.054012 0.129304 -1.838660
v 0.054012 0.418196 -1.694153
v 0.054012 0.418196 -1.838660
v 0.054012 0.132633 -1.866597
v 0.054012 0.355413 -1.866597
v -0.054012 -0.159588 -1.838660
v -0.054012 0.132633 -1.866597
v -0.054012 -0.090148 -1.866597
v 0.054012 -0.090148 -1.866597
v 0.054012 -0.090148 -2.030240
v 0.054012 -0.090148 -2.635014
v 0.054012 -0.090148 -2.798656
v -0.054012 0.355413 -1.866597
v -0.054013 0.355413 -2.798656
v -0.054013 0.132633 -2.798656
v 0.054012 0.355413 -2.798656
v 0.054012 0.307511 -2.824012
v -0.054013 0.307511 -2.824012
v 0.054012 0.132633 -2.798656
v 0.054012 0.132633 -2.824012
v -0.054013 -0.090148 -2.798656
v -0.054013 0.132633 -2.824012
v 0.054012 -0.042246 -2.824012
v -0.054013 -0.042246 -2.824012
v -0.054012 -0.090148 -2.030240
v -0.054013 -0.467146 -2.030240
v 0.054012 -0.467146 -2.030240
v -0.054013 -0.090148 -2.635014
v 0.054012 -0.467146 -2.090364
v 0.054012 -0.467146 -2.574888
v 0.054012 -0.467146 -2.635014
v -0.054013 -0.467146 -2.635014
v -0.054013 -0.467146 -2.090364
v -0.054013 -0.467146 -2.574888
v -0.054013 -0.623095 -2.574888
v -0.054013 -0.623095 -2.090364
v 0.054012 -0.623095 -2.090364
v 0.054012 -0.623095 -2.574888
v -0.054013 -0.623095 -2.704571
v 0.054012 -0.623095 -2.704571
v 0.054012 -0.844656 -2.704571
v -0.054013 -0.844656 -2.704571
v -0.054013 -0.623095 -1.960683
v 0.054012 -0.623095 -1.960683
v 0.054012 -0.844656 -1.960683
v -0.054013 -0.844656 -1.960683
vt 0.373863 0.612400
vt 0.391196 0.612400
vt 0.391196 0.387600
vt 0.373863 0.387600
vt 0.373863 0.612400
vt 0.373863 0.387600
vt 0.391196 0.387600
vt 0.391196 0.612400
vt 0.778225 0.612400
vt 0.778225 0.387600
vt 0.818990 0.387600
vt 0.818990 0.612400
vt 0.818990 0.612400
vt 0.850452 0.612400
vt 0.832585 0.427432
vt 0.765827 0.427432
vt 0.747959 0.612400
vt 0.778225 0.612400
vt 0.818990 0.387600
vt 0.850452 0.387600
vt 0.778225 0.387600
vt 0.373863 0.387600
vt 0.271720 0.387600
vt 0.271720 0.612400
vt 0.314734 0.612400
vt 0.314734 0.387600
vt 0.351199 0.612400
vt 0.351199 0.387600
vt 0.562814 0.387600
vt 0.562814 0.612400
vt 0.526349 0.612400
vt 0.526349 0.387600
vt 0.379842 0.555016
vt 0.379842 0.512002
vt 0.388809 0.512002
vt 0.388809 0.536221
vt 0.379842 0.468988
vt 0.379842 0.512002
vt 0.388809 0.512002
vt 0.388809 0.487783
vt 0.440322 0.387600
vt 0.440322 0.612400
vt 0.403857 0.612400
vt 0.403857 0.387600
vt 0.351199 0.387600
vt 0.351199 0.612400
vt 0.314734 0.612400
vt 0.314734 0.387600
vt 0.271720 0.612400
vt 0.271720 0.387600
vt 0.228706 0.612400
vt 0.228706 0.387600
vt 0.192241 0.612400
vt 0.192241 0.387600
vt 0.403857 0.387600
vt 0.403857 0.612400
vt 0.440322 0.612400
vt 0.440322 0.387600
vt 0.483336 0.612400
vt 0.483336 0.387600
vt 0.526349 0.612400
vt 0.526349 0.387600
vt 0.562814 0.612400
vt 0.562814 0.387600
vt 0.309951 0.319120
vt 0.271720 0.319120
vt 0.192241 0.387600
vt 0.192241 0.612400
vt 0.228706 0.612400
vt 0.228706 0.387600
vt 0.553977 0.319120
vt 0.521567 0.319120
vt 0.521567 0.319120
vt 0.483336 0.284444
vt 0.483336 0.228175
vt 0.514480 0.228175
vt 0.201078 0.680880
vt 0.233489 0.680880
vt 0.242103 0.771825
vt 0.225518 0.771825
vt 0.483336 0.612400
vt 0.483336 0.715556
vt 0.445105 0.680880
vt 0.521567 0.680880
vt 0.553977 0.680880
vt 0.271720 0.680880
vt 0.309951 0.680880
vt 0.201078 0.319120
vt 0.233489 0.319120
vt 0.412694 0.319120
vt 0.445105 0.319120
vt 0.233489 0.319120
vt 0.201078 0.319120
vt 0.412694 0.680880
vt 0.201078 0.680880
vt 0.233489 0.680880
vt 0.342361 0.319120
vt 0.445105 0.319120
vt 0.412694 0.319120
vt 0.342361 0.680880
vt 0.412694 0.680880
vt 0.445105 0.680880
vt 0.309951 0.319120
vt 0.342361 0.319120
vt 0.342361 0.680880
vt 0.309951 0.680880
vt 0.553977 0.319120
vt 0.483336 0.319120
vt 0.553977 0.680880
vt 0.521567 0.680880
vt 0.483336 0.680880
vt 0.271720 0.319120
vt 0.271720 0.680880
vt 0.483336 0.387600
vt 0.453719 0.228175
vt 0.428612 0.228175
vt 0.514480 0.771825
vt 0.483336 0.771825
vt 0.428612 0.771825
vt 0.453719 0.771825
vt 0.446699 0.228175
vt 0.483336 0.228175
vt 0.446699 0.771825
vt 0.483336 0.771825
vt 0.428612 0.228175
vt 0.512952 0.228175
vt 0.428612 0.771825
vt 0.512952 0.771825
vt 0.301336 0.228175
vt 0.326444 0.228175
vt 0.538060 0.228175
vt 0.326444 0.771825
vt 0.301336 0.771825
vt 0.301336 0.228175
vt 0.271720 0.228175
vt 0.538060 0.771825
vt 0.271720 0.228175
vt 0.271720 0.771825
vt 0.301336 0.771825
vt 0.242103 0.228175
vt 0.225518 0.228175
vt 0.271720 0.771825
vt 0.326444 0.228175
vt 0.225518 0.771825
vt 0.242103 0.771825
vt 0.242103 0.228175
vt 0.326444 0.771825
vt 0.538060 0.228175
vt 0.225518 0.228175
vt 0.538060 0.771825
vt 0.554836 0.771825
vt 0.554836 0.228175
vt 0.411835 0.771825
vt 0.411835 0.228175
vt 0.401356 0.512002
vt 0.401356 0.490289
vt 0.388809 0.612400
vt 0.388809 0.387600
vt 0.401356 0.387600
vt 0.401356 0.612400
vt 0.507555 0.612400
vt 0.507555 0.387600
vt 0.379842 0.468988
vt 0.388809 0.487783
vt 0.379842 0.555016
vt 0.388809 0.536221
vt 0.459117 0.387600
vt 0.459117 0.612400
vt 0.401356 0.533715
vt 0.693650 0.538140
vt 0.693650 0.512002
vt 0.401356 0.512002
vt 0.401356 0.490289
vt 0.693650 0.485864
vt 0.693650 0.512002
vt 0.401356 0.533715
vt 0.388809 0.387600
vt 0.388809 0.612400
vt 0.401356 0.612400
vt 0.401356 0.387600
vt 0.693650 0.485864
vt 0.711237 0.512002
vt 0.711237 0.479530
vt 0.693650 0.612400
vt 0.693650 0.387600
vt 0.711237 0.387600
vt 0.711237 0.612400
vt 0.693650 0.538140
vt 0.693650 0.612400
vt 0.693650 0.387600
vt 0.711237 0.544473
vt 0.731147 0.544473
vt 0.731147 0.512002
vt 0.711237 0.512002
vt 0.711237 0.479530
vt 0.731147 0.479530
vt 0.731147 0.512002
vt 0.711237 0.544473
vt 0.711237 0.612400
vt 0.711237 0.387600
vt 0.731147 0.544473
vt 0.734996 0.512376
vt 0.734996 0.537417
vt 0.731147 0.479530
vt 0.734996 0.512376
vt 0.734996 0.487336
vt 0.731147 0.387600
vt 0.731147 0.612400
vt 0.731147 0.612400
vt 0.731147 0.387600
vt 0.734996 0.612400
vt 0.757543 0.612400
vt 0.840869 0.612400
vt 0.863415 0.612400
vt 0.734996 0.537417
vt 0.863415 0.537417
vt 0.863415 0.512376
vt 0.515807 0.387600
vt 0.515807 0.612400
vt 0.508750 0.612400
vt 0.508750 0.387600
vt 0.734996 0.487336
vt 0.450864 0.612400
vt 0.450864 0.387600
vt 0.458669 0.387600
vt 0.458669 0.612400
vt 0.508750 0.387600
vt 0.508750 0.612400
vt 0.503366 0.612400
vt 0.503366 0.387600
vt 0.863415 0.537417
vt 0.863415 0.512376
vt 0.866909 0.512376
vt 0.866909 0.532032
vt 0.863415 0.487336
vt 0.734996 0.387600
vt 0.734996 0.612400
vt 0.863415 0.612400
vt 0.863415 0.387600
vt 0.863415 0.487336
vt 0.483710 0.612400
vt 0.483710 0.387600
vt 0.464054 0.612400
vt 0.464054 0.387600
vt 0.866909 0.492720
vt 0.866909 0.532032
vt 0.866909 0.512376
vt 0.458669 0.612400
vt 0.458669 0.387600
vt 0.866909 0.492720
vt 0.458669 0.612400
vt 0.458669 0.387600
vt 0.416295 0.387600
vt 0.416295 0.612400
vt 0.734996 0.387600
vt 0.757543 0.387600
vt 0.863415 0.387600
vt 0.840869 0.387600
vt 0.757543 0.612400
vt 0.765827 0.612400
vt 0.832585 0.612400
vt 0.840869 0.612400
vt 0.840869 0.487336
vt 0.757543 0.487336
vt 0.757543 0.444961
vt 0.840869 0.444961
vt 0.458669 0.387600
vt 0.458669 0.612400
vt 0.416295 0.612400
vt 0.416295 0.387600
vt 0.757543 0.487336
vt 0.840869 0.487336
vt 0.840869 0.444961
vt 0.757543 0.444961
vt 0.765827 0.444961
vt 0.832585 0.444961
vt 0.832585 0.427432
vt 0.765827 0.427432
vt 0.840869 0.387600
vt 0.832585 0.387600
vt 0.765827 0.387600
vt 0.757543 0.387600
vt 0.416295 0.612400
vt 0.416295 0.387600
vt 0.398766 0.387600
vt 0.398766 0.612400
vt 0.832585 0.444961
vt 0.765827 0.444961
vt 0.416295 0.387600
vt 0.416295 0.612400
vt 0.398766 0.612400
vt 0.398766 0.387600
vt 0.398766 0.387600
vt 0.398766 0.612400
vt 0.373863 0.612400
vt 0.373863 0.387600
vt 0.832585 0.387600
vt 0.832585 0.612400
vt 0.850452 0.612400
vt 0.850452 0.387600
vt 0.765827 0.612400
vt 0.765827 0.387600
vt 0.747959 0.387600
vt 0.747959 0.612400
vt 0.747959 0.387600
vt 0.398766 0.612400
vt 0.398766 0.387600
vt 0.373863 0.612400
vn 0.0000 0.0000 1.0000
vn 0.0000 0.0000 -1.0000
vn 0.0000 -1.0000 0.0000
vn 1.0000 0.0000 0.0000
vn -1.0000 0.0000 0.0000
vn -0.5573 0.8303 0.0000
vn 0.5573 0.8303 0.0000
vn 0.5462 0.7632 -0.3452
vn -0.5462 0.7632 -0.3452
vn 0.5663 0.5489 -0.6149
vn -0.5663 0.5489 -0.6149
vn 0.5711 0.3450 -0.7449
vn -0.5711 0.3450 -0.7449
vn 0.9770 0.0000 -0.2131
vn -0.5711 -0.3450 -0.7449
vn -0.9770 0.0000 -0.2131
vn 0.5711 -0.3450 -0.7449
vn 0.5663 -0.5489 -0.6149
vn -0.5663 -0.5489 -0.6149
vn 0.5412 -0.7712 -0.3353
vn -0.5412 -0.7712 -0.3353
vn 0.5558 -0.8313 0.0000
vn -0.5558 -0.8313 0.0000
vn 0.5412 -0.7712 0.3353
vn -0.5412 -0.7712 0.3353
vn 0.5544 -0.5336 0.6386
vn -0.5544 -0.5336 0.6386
vn 0.5501 -0.2729 0.7893
vn -0.5501 -0.2729 0.7893
vn 0.5480 -0.0000 0.8365
vn -0.5480 0.0000 0.8365
vn 0.5501 0.2729 0.7893
vn -0.5501 0.2729 0.7893
vn 0.5544 0.5336 0.6386
vn -0.5544 0.5336 0.6386
vn -0.9630 0.2423 -0.1179
vn -0.9620 0.2729 0.0000
vn 0.5462 0.7632 0.3452
vn -0.5462 0.7632 0.3452
vn -0.9649 0.1606 0.2080
vn -0.9677 0.0702 0.2420
vn -0.9617 0.0815 -0.2618
vn -0.9583 0.0003 -0.2858
vn -0.9922 0.0003 -0.1249
vn -0.9858 0.0500 -0.1601
vn 0.9649 -0.1606 0.2080
vn 0.9633 -0.2415 0.1174
vn 0.9780 -0.1797 0.1057
vn 0.9810 -0.1145 0.1564
vn 0.9583 0.0003 -0.2858
vn 0.9621 -0.0807 -0.2604
vn 0.9677 0.0702 0.2419
vn 0.9649 0.1606 0.2080
vn 0.9621 0.2729 0.0000
vn 0.9630 0.2423 -0.1179
vn -0.9649 -0.1606 0.2080
vn -0.9633 -0.2415 0.1174
vn -0.9634 -0.1730 -0.2049
vn -0.9621 -0.0807 -0.2604
vn -0.9643 0.2372 0.1180
vn 0.9634 -0.1730 -0.2049
vn 0.9643 0.2372 0.1180
vn -0.9642 0.1702 -0.2035
vn -0.9677 -0.0702 0.2420
vn 0.9642 0.1702 -0.2035
vn 0.9677 -0.0702 0.2420
vn -0.9620 -0.2466 -0.1173
vn 0.9620 -0.2466 -0.1173
vn -0.9691 -0.0000 0.2466
vn 0.9617 0.0815 -0.2618
vn 0.9691 -0.0000 0.2466
vn -0.9594 -0.2820 0.0000
vn 0.9594 -0.2820 0.0000
vn -0.9895 -0.0205 0.1430
vn -0.9810 -0.1145 0.1564
vn 0.9858 0.0500 -0.1601
vn 0.9922 0.0003 -0.1249
vn 0.9895 -0.0205 0.1430
vn -0.9832 -0.0637 -0.1714
vn -0.9918 -0.0000 0.1281
vn 0.9832 -0.0637 -0.1714
vn 0.9918 0.0000 0.1281
vn -0.9719 -0.1436 -0.1865
vn -0.9895 0.0205 0.1430
vn 0.9719 -0.1436 -0.1865
vn 0.9895 0.0205 0.1430
vn -0.9753 -0.1954 -0.1033
vn -0.9810 0.1145 0.1564
vn 0.9753 -0.1954 -0.1033
vn -0.9753 0.1954 -0.1033
vn -0.9770 0.2132 0.0000
vn 0.9810 0.1145 0.1564
vn -0.9770 -0.2132 0.0000
vn 0.9770 0.2132 0.0000
vn 0.9753 0.1954 -0.1033
vn -0.9780 0.1797 0.1057
vn 0.9770 -0.2132 0.0000
vn -0.9739 0.1344 -0.1830
vn 0.9780 0.1797 0.1057
vn -0.9780 -0.1797 0.1057
vn 0.9739 0.1344 -0.1830
vn 0.0000 -0.8442 -0.5360
vn 0.0000 -0.5157 -0.8568
vn 0.0000 0.0656 -0.9978
vn 0.0000 -0.0656 -0.9978
vn 0.0000 0.5157 -0.8568
vn 0.0000 0.8442 -0.5360
vn 0.0000 1.0000 -0.0000
vn 0.0000 0.8948 0.4464
vn 0.0000 0.6234 0.7819
vn 0.0000 0.0586 0.9983
vn 0.0000 0.0274 0.9996
vn 0.0000 0.0174 0.9998
vn 0.0000 -0.5847 0.8113
vn 0.0000 -0.8948 0.4464
vn 0.0000 -0.7519 -0.6593
vn 0.0000 -0.9939 -0.1105
vn 0.0000 0.7519 -0.6593
vn 0.0000 0.9939 -0.1105
vn 0.0000 -0.9765 0.2154
vn 0.0000 -0.9785 0.2063
vn 0.0000 0.9765 0.2154
vn 0.0000 0.9785 0.2063
vn 0.0000 -0.8286 -0.5598
vn 0.0000 0.8386 -0.5447
vn 0.2220 0.9750 0.0000
vn 0.0001 -0.8567 -0.5158
vn 0.1808 -0.0904 -0.9794
vn -0.0000 -0.8287 -0.5597
vn 0.0000 0.8567 -0.5158
vn 0.0000 0.2410 -0.9705
vn 0.0000 -0.2410 -0.9705
vn 0.0000 -0.8567 -0.5158
vn -0.0124 -0.9999 0.0000
vn -0.0186 -0.9998 0.0000
vn -0.0171 0.9999 0.0000
vn 0.6933 -0.7207 0.0000
vn 0.4939 -0.8695 0.0000
vn 0.0002 -1.0000 0.0000
vn 0.4938 -0.8696 0.0000
usemtl None
s off
f 1/1/1 2/2/1 3/3/1 4/4/1
f 5/5/2 6/6/2 7/7/2 8/8/2
f 8/9/3 7/10/3 3/11/3 2/12/3
f 2/2/4 1/13/4 171/14/4
f 2/12/4 168/15/4 167/16/4 8/9/4
f 8/8/4 175/17/4 5/18/4
f 4/19/5 3/3/5 172/20/5
f 7/10/5 6/21/5 176/22/5
s 1
f 9/23/6 10/24/7 11/25/8 12/26/9
f 12/26/9 11/25/8 13/27/10 14/28/11
f 14/29/11 13/30/10 15/31/12 16/32/13
f 15/33/12 17/34/14 18/35/4 19/36/4
f 20/37/15 21/38/16 22/39/5 23/40/5
f 20/41/15 24/42/17 25/43/18 26/44/19
f 26/45/19 25/46/18 27/47/20 28/48/21
f 28/48/21 27/47/20 29/49/22 30/50/23
f 30/50/23 29/49/22 31/51/24 32/52/25
f 32/52/25 31/51/24 33/53/26 34/54/27
f 34/55/27 33/56/26 35/57/28 36/58/29
f 36/58/29 35/57/28 37/59/30 38/60/31
f 38/60/31 37/59/30 39/61/32 40/62/33
f 40/62/33 39/61/32 41/63/34 42/64/35
f 9/23/6 12/26/9 43/65/36 44/66/37
f 42/67/35 41/68/34 45/69/38 46/70/39
f 46/70/39 45/69/38 10/24/7 9/23/6
f 40/62/33 42/64/35 47/71/40 48/72/41
f 49/73/42 50/74/43 51/75/44 52/76/45
f 53/77/46 54/78/47 55/79/48 56/80/49
f 24/42/17 17/81/14 57/82/50 58/83/51
f 41/63/34 39/61/32 59/84/52 60/85/53
f 11/25/8 10/24/7 61/86/54 62/87/55
f 32/52/25 34/54/27 63/88/56 64/89/57
f 33/53/26 31/51/24 54/78/47 53/77/46
f 20/41/15 26/44/19 65/90/58 66/91/59
f 42/67/35 46/70/39 67/92/60 47/93/40
f 25/43/18 24/42/17 58/83/51 68/94/61
f 45/69/38 41/68/34 60/95/53 69/96/62
f 12/26/9 14/28/11 70/97/63 43/65/36
f 34/55/27 36/58/29 71/98/64 63/99/56
f 13/27/10 11/25/8 62/87/55 72/100/65
f 35/57/28 33/56/26 53/101/46 73/102/66
f 26/45/19 28/48/21 74/103/67 65/104/58
f 46/70/39 9/23/6 44/66/37 67/92/60
f 27/47/20 25/46/18 68/105/61 75/106/68
f 10/24/7 45/69/38 69/96/62 61/86/54
f 14/29/11 16/32/13 49/73/42 70/107/63
f 36/58/29 38/60/31 76/108/69 71/98/64
f 15/31/12 13/30/10 72/109/65 77/110/70
f 37/59/30 35/57/28 73/102/66 78/111/71
f 28/48/21 30/50/23 79/112/72 74/103/67
f 29/49/22 27/47/20 75/106/68 80/113/73
f 16/32/13 21/114/16 50/74/43 49/73/42
f 38/60/31 40/62/33 48/72/41 76/108/69
f 17/81/14 15/31/12 77/110/70 57/82/50
f 39/61/32 37/59/30 78/111/71 59/84/52
f 30/50/23 32/52/25 64/89/57 79/112/72
f 31/51/24 29/49/22 80/113/73 54/78/47
f 21/114/16 20/41/15 66/91/59 50/74/43
f 63/99/56 71/98/64 81/115/74 82/116/75
f 57/82/50 77/110/70 83/117/76 84/118/77
f 73/102/66 53/101/46 56/119/49 85/120/78
f 50/74/43 66/91/59 86/121/79 51/75/44
f 71/98/64 76/108/69 87/122/80 81/115/74
f 58/83/51 57/82/50 84/118/77 88/123/81
f 78/111/71 73/102/66 85/120/78 89/124/82
f 66/91/59 65/90/58 90/125/83 86/121/79
f 76/108/69 48/72/41 91/126/84 87/122/80
f 68/94/61 58/83/51 88/123/81 92/127/85
f 59/84/52 78/111/71 89/124/82 93/128/86
f 65/104/58 74/103/67 94/129/87 90/130/83
f 48/72/41 47/71/40 95/131/88 91/126/84
f 75/106/68 68/105/61 92/132/85 96/133/89
f 44/66/37 43/65/36 97/134/90 98/135/91
f 60/85/53 59/84/52 93/128/86 99/136/92
f 74/103/67 79/112/72 100/137/93 94/129/87
f 62/87/55 61/86/54 101/138/94 102/139/95
f 47/93/40 67/92/60 103/140/96 95/141/88
f 80/113/73 75/106/68 96/133/89 104/142/97
f 43/65/36 70/97/63 105/143/98 97/134/90
f 69/96/62 60/95/53 99/144/92 106/145/99
f 79/112/72 64/89/57 107/146/100 100/137/93
f 72/100/65 62/87/55 102/139/95 108/147/101
f 67/92/60 44/66/37 98/135/91 103/140/96
f 54/78/47 80/113/73 104/142/97 55/79/48
f 70/107/63 49/73/42 52/76/45 105/148/98
f 61/86/54 69/96/62 106/145/99 101/138/94
f 64/89/57 63/88/56 82/149/75 107/146/100
f 77/110/70 72/109/65 108/150/101 83/117/76
f 101/138/3 106/145/102 103/140/102 98/135/3
f 106/151/102 99/136/103 95/131/103 103/152/102
f 99/136/103 93/128/104 91/126/104 95/131/103
f 93/128/104 89/124/2 87/122/2 91/126/104
f 89/124/2 85/120/105 81/115/105 87/122/2
f 85/120/105 56/119/106 82/116/106 81/115/105
f 56/119/106 55/153/107 107/154/107 82/116/106
f 55/79/107 104/142/108 100/137/108 107/146/107
f 104/142/108 96/133/109 94/129/109 100/137/108
f 96/133/109 92/132/110 90/130/110 94/129/109
f 92/127/110 88/123/111 86/121/111 90/125/110
f 88/123/111 84/118/112 51/75/112 86/121/111
f 84/118/112 83/117/113 52/76/113 51/75/112
f 83/117/113 108/150/114 105/148/114 52/76/113
f 108/147/114 102/139/115 97/134/115 105/143/114
f 102/139/115 101/138/3 98/135/3 97/134/115
f 23/40/5 22/39/5 109/155/5 110/156/5
f 111/157/116 23/158/116 110/159/117 112/160/117
f 16/32/13 15/31/12 19/161/118 113/162/118
f 17/34/14 24/163/17 111/164/4 18/35/4
f 21/38/16 16/165/13 113/166/5 22/39/5
f 24/42/17 20/41/15 23/167/116 111/168/116
f 109/155/5 114/169/5 115/170/5 116/171/5
f 117/172/4 112/173/4 118/174/4 119/175/4
f 19/36/4 18/35/4 117/172/4 120/176/4
f 113/177/118 19/178/118 120/179/119 114/180/119
f 18/35/4 111/164/4 112/173/4 117/172/4
f 22/39/5 113/166/5 114/169/5 109/155/5
f 121/181/5 116/171/5 122/182/5 123/183/5
f 118/184/120 121/185/120 123/186/121 124/187/121
f 112/160/117 110/159/117 121/185/120 118/184/120
f 110/156/5 109/155/5 116/171/5 121/181/5
f 120/176/4 117/172/4 119/175/4 125/188/4
f 114/180/119 120/179/119 125/189/122 115/190/122
f 122/182/5 126/191/5 127/192/5 128/193/5
f 129/194/4 124/195/4 130/196/4 131/197/4
f 125/188/4 119/175/4 129/194/4 132/198/4
f 115/190/122 125/189/122 132/199/123 126/200/123
f 119/175/4 118/174/4 124/195/4 129/194/4
f 116/171/5 115/170/5 126/191/5 122/182/5
f 133/201/4 131/197/4 134/202/4 135/203/4
f 136/204/5 128/193/5 137/205/5 138/206/5
f 124/187/121 123/186/121 136/207/124 130/208/124
f 123/183/5 122/182/5 128/193/5 136/204/5
f 132/198/4 129/194/4 131/197/4 133/201/4
f 126/200/123 132/199/123 133/209/125 127/210/125
f 139/211/126 140/212/126 141/213/126
f 142/214/127 139/211/2 141/213/128
f 137/205/5 143/215/5 144/216/5 145/217/5
f 127/218/125 133/219/125 135/220/125 143/221/125
f 131/197/4 130/196/4 139/222/4 134/202/4
f 128/193/5 127/192/5 143/215/5 137/205/5
f 130/223/124 136/224/124 138/225/129 139/226/124
f 144/227/130 146/228/130 147/229/131 148/230/131
f 146/231/4 149/232/4 150/233/4 147/234/4
f 138/206/5 137/205/5 145/217/5 151/235/5
f 135/203/4 134/202/4 149/232/4 146/231/4
f 143/236/125 135/237/125 146/238/130 144/239/130
f 134/202/4 139/222/4 142/240/4 149/232/4
f 148/230/131 147/229/131 150/241/2 152/242/2
f 152/242/2 150/241/2 153/243/132 154/244/132
f 149/232/4 142/240/4 153/245/4 150/233/4
f 145/217/5 144/216/5 148/246/5 152/247/5
f 142/248/127 151/249/133 154/244/132 153/243/132
f 151/235/5 145/217/5 152/247/5 154/250/5
f 140/251/1 155/252/1 156/253/1 157/254/1
f 139/211/124 138/255/129 155/256/134 140/212/3
f 138/255/129 151/257/135 155/256/134
f 151/257/136 158/258/136 155/256/136
f 151/257/133 142/214/127 141/213/128 158/258/3
f 157/259/2 159/260/1 160/261/1
f 161/262/3 157/259/137 160/261/138
f 141/263/4 140/264/4 157/265/4 161/266/4
f 158/267/2 141/268/2 161/269/2 162/270/2
f 155/271/5 158/272/5 162/273/5 156/274/5
f 163/275/5 164/276/5 165/277/5 166/278/5
f 162/279/3 161/262/3 160/261/138 164/280/3
f 162/279/1 164/280/2 163/281/2
f 156/282/139 162/279/137 163/281/140
f 157/259/3 156/282/139 163/281/140 159/260/3
f 159/283/1 163/284/1 166/285/1 167/286/1
f 160/287/4 159/288/4 167/16/4 168/15/4
f 164/289/2 160/290/2 168/291/2 165/292/2
f 169/293/2 170/294/2 171/295/2 172/296/2
f 165/297/108 168/298/108 170/299/108 169/300/108
f 167/301/108 166/302/108 173/303/108 174/304/108
f 172/20/3 171/14/3 1/13/3 4/19/3
f 175/17/3 176/305/3 6/21/3 5/18/3
f 166/278/5 165/277/5 3/11/5 7/10/5
f 174/306/1 173/307/1 176/22/1 175/308/1
f 174/304/4 175/17/4 8/9/4 167/301/4
f 170/299/4 168/298/4 2/12/4 171/14/4
f 169/293/5 172/296/5 3/3/5 165/277/5
f 173/303/5 166/302/5 7/10/5 176/22/5
