# Blender v3.6.5 OBJ File: ''
# www.blender.org
mtllib sorakaiKey.mtl
o Cylinder
v -0.054012 1.105441 1.495842
v 0.054013 1.105441 1.495842
v -0.054012 1.053183 1.183651
v 0.054013 1.053183 1.183651
v -0.054012 0.836411 0.918989
v 0.054012 0.836411 0.918989
v -0.054012 0.511987 0.711097
v 0.054012 0.511987 0.711097
v -0.054012 0.129304 0.711097
v 0.054012 0.129304 0.711097
v -0.054012 -0.253380 0.711097
v 0.054012 -0.253380 0.711097
v -0.054012 -0.577803 0.918989
v 0.054012 -0.577803 0.918989
v -0.054012 -0.794576 1.183651
v 0.054012 -0.794576 1.183651
v -0.054012 -0.837026 1.495842
v 0.054012 -0.837026 1.495842
v -0.054012 -0.794576 1.808032
v 0.054012 -0.794576 1.808032
v -0.054012 -0.577803 2.072695
v 0.054012 -0.577803 2.072695
v -0.054012 -0.253380 2.249537
v 0.054012 -0.253380 2.249537
v -0.054012 0.129304 2.311635
v 0.054013 0.129304 2.311635
v -0.054012 0.511987 2.249537
v 0.054013 0.511987 2.249537
v -0.054012 0.836411 2.072695
v 0.054013 0.836411 2.072695
v -0.054012 1.053183 1.808032
v 0.054013 1.053183 1.808032
v -0.086920 1.018114 1.495842
v -0.086920 0.950458 1.218363
v 0.086920 0.950458 1.218363
v 0.086920 1.018114 1.495842
v -0.086920 0.757788 0.983129
v 0.086920 0.757788 0.983129
v -0.086920 0.469437 0.825950
v 0.086920 0.469437 0.825950
v -0.103583 0.129304 0.770756
v 0.103583 0.129304 0.770756
v -0.086920 -0.210829 0.825950
v 0.086920 -0.210829 0.825950
v -0.086920 -0.499180 0.983129
v 0.086920 -0.499180 0.983129
v -0.086920 -0.691850 1.218363
v 0.086920 -0.691850 1.218363
v -0.086920 -0.759506 1.495842
v 0.086920 -0.759506 1.495842
v -0.086920 -0.691850 1.773320
v 0.086920 -0.691850 1.773320
v -0.086920 -0.499180 2.008555
v 0.086920 -0.499180 2.008555
v -0.086920 -0.210829 2.165734
v 0.086920 -0.210829 2.165734
v -0.086920 0.129304 2.220927
v 0.086920 0.129304 2.220927
v -0.086920 0.469437 2.165734
v 0.086920 0.469437 2.165734
v -0.086920 0.757788 2.008555
v 0.086920 0.757788 2.008555
v -0.086920 0.950458 1.773320
v 0.086920 0.950458 1.773320
v -0.130622 0.817843 1.495842
v -0.130622 0.765431 1.280886
v 0.130622 0.765431 1.280886
v 0.130622 0.817843 1.495842
v -0.130622 0.616175 1.098656
v 0.130622 0.616175 1.098656
v -0.130622 0.406388 1.018626
v 0.130622 0.406388 1.018626
v -0.130622 0.129304 1.135508
v 0.130622 0.129304 1.135508
v -0.130622 -0.196650 1.018626
v 0.130622 -0.196650 1.018626
v -0.130622 -0.357567 1.098656
v 0.130622 -0.357567 1.098656
v -0.130622 -0.506823 1.280886
v 0.130622 -0.506823 1.280886
v -0.130622 -0.559235 1.495842
v 0.130622 -0.559235 1.495842
v -0.130622 -0.506823 1.710797
v 0.130622 -0.506823 1.710797
v -0.130622 -0.357567 1.831170
v 0.130622 -0.357567 1.831170
v -0.130622 -0.134189 1.926901
v 0.130622 -0.134189 1.926901
v -0.130622 0.129304 1.770356
v 0.130622 0.129304 1.770356
v -0.130622 0.392797 1.926901
v 0.130622 0.392797 1.926901
v -0.130622 0.616175 1.831170
v 0.130622 0.616175 1.831170
v -0.130622 0.765431 1.710797
v 0.130622 0.765431 1.710797
v 0.054012 0.344778 0.646013
v -0.054012 0.344778 0.646013
v -0.054012 0.129304 0.646013
v 0.054012 0.129304 0.646013
v -0.054012 -0.086170 0.646013
v 0.054012 -0.086170 0.646013
v 0.054012 0.322483 0.554950
v -0.054012 0.322483 0.554950
v -0.054012 0.129304 0.554950
v 0.054012 0.129304 0.554950
v -0.054012 -0.063875 0.554950
v 0.054012 -0.063875 0.554950
v 0.054012 0.361852 -1.566506
v -0.054012 0.361852 -1.566506
v -0.054012 0.129304 -1.566506
v 0.054012 0.129304 -1.566506
v -0.054012 -0.103244 -1.566506
v 0.054012 -0.103244 -1.566506
v 0.054012 0.418196 -1.694153
v -0.054012 0.418196 -1.694153
v -0.054012 0.129304 -1.694153
v 0.054012 0.129304 -1.694153
v -0.054012 -0.159588 -1.694153
v 0.054012 -0.159588 -1.694153
v 0.054012 0.418196 -1.838660
v -0.054012 0.418196 -1.838660
v -0.054012 0.129304 -1.838660
v 0.054012 0.129304 -1.838660
v -0.054012 -0.159588 -1.838660
v 0.054012 -0.159588 -1.838660
v 0.054012 0.355413 -1.866597
v -0.054012 0.355413 -1.866597
v -0.054012 0.132633 -1.866597
v 0.054012 0.132633 -1.866597
v -0.054012 -0.090148 -1.866597
v 0.054012 -0.090148 -1.866597
v 0.054012 0.355413 -2.798656
v -0.054013 0.355413 -2.798656
v -0.054013 0.132633 -2.798656
v 0.054012 0.132633 -2.798656
v -0.054013 -0.090148 -2.798656
v 0.054012 -0.090148 -2.798656
v 0.054012 0.307511 -2.824012
v -0.054013 0.307511 -2.824012
v -0.054013 0.132633 -2.824012
v 0.054012 0.132633 -2.824012
v -0.054013 -0.042246 -2.824012
v 0.054012 -0.042246 -2.824012
v 0.054012 -0.090148 -2.030240
v -0.054012 -0.090148 -2.030240
v 0.054012 -0.090148 -2.635014
v -0.054013 -0.090148 -2.635014
v 0.054012 -0.467146 -2.030240
v -0.054013 -0.467146 -2.030240
v 0.054012 -0.467146 -2.635014
v -0.054013 -0.467146 -2.635014
v 0.054012 -0.467146 -2.090364
v -0.054013 -0.467146 -2.090364
v 0.054012 -0.467146 -2.574888
v -0.054013 -0.467146 -2.574888
v 0.054012 -0.623095 -2.090364
v -0.054013 -0.623095 -2.090364
v 0.054012 -0.623095 -2.574888
v -0.054013 -0.623095 -2.574888
v 0.054012 -0.623095 -1.960683
v -0.054013 -0.623095 -1.960683
v 0.054012 -0.623095 -2.704571
v -0.054013 -0.623095 -2.704571
v 0.054012 -0.844656 -1.960683
v -0.054013 -0.844656 -1.960683
v 0.054012 -0.844656 -2.704571
v -0.054013 -0.844656 -2.704571
v -0.054013 -0.844656 -2.476217
v -0.054013 -0.844656 -2.180353
v 0.054012 -0.844656 -2.180353
v 0.054012 -0.844656 -2.476217
v -0.054013 -0.690445 -2.476217
v -0.054013 -0.690445 -2.180353
v 0.054012 -0.690445 -2.180353
v 0.054012 -0.690445 -2.476217
vt 0.373863 0.612400
vt 0.391196 0.612400
vt 0.391196 0.387600
vt 0.373863 0.387600
vt 0.373863 0.612400
vt 0.373863 0.387600
vt 0.391196 0.387600
vt 0.391196 0.612400
vt 0.778225 0.612400
vt 0.778225 0.387600
vt 0.818990 0.387600
vt 0.818990 0.612400
vt 0.271720 0.387600
vt 0.271720 0.612400
vt 0.314734 0.612400
vt 0.314734 0.387600
vt 0.351199 0.612400
vt 0.351199 0.387600
vt 0.562814 0.387600
vt 0.562814 0.612400
vt 0.526349 0.612400
vt 0.526349 0.387600
vt 0.379842 0.555016
vt 0.379842 0.512002
vt 0.388809 0.512002
vt 0.388809 0.536221
vt 0.379842 0.468988
vt 0.379842 0.512002
vt 0.388809 0.512002
vt 0.388809 0.487783
vt 0.440322 0.387600
vt 0.440322 0.612400
vt 0.403857 0.612400
vt 0.403857 0.387600
vt 0.351199 0.387600
vt 0.351199 0.612400
vt 0.314734 0.612400
vt 0.314734 0.387600
vt 0.271720 0.612400
vt 0.271720 0.387600
vt 0.228706 0.612400
vt 0.228706 0.387600
vt 0.192241 0.612400
vt 0.192241 0.387600
vt 0.403857 0.387600
vt 0.403857 0.612400
vt 0.440322 0.612400
vt 0.440322 0.387600
vt 0.483336 0.612400
vt 0.483336 0.387600
vt 0.526349 0.612400
vt 0.526349 0.387600
vt 0.562814 0.612400
vt 0.562814 0.387600
vt 0.309951 0.319120
vt 0.271720 0.319120
vt 0.192241 0.387600
vt 0.192241 0.612400
vt 0.228706 0.612400
vt 0.228706 0.387600
vt 0.553977 0.319120
vt 0.521567 0.319120
vt 0.521567 0.319120
vt 0.483336 0.284444
vt 0.483336 0.228175
vt 0.514480 0.228175
vt 0.201078 0.680880
vt 0.233489 0.680880
vt 0.242103 0.771825
vt 0.225518 0.771825
vt 0.483336 0.612400
vt 0.483336 0.715556
vt 0.445105 0.680880
vt 0.521567 0.680880
vt 0.553977 0.680880
vt 0.271720 0.680880
vt 0.309951 0.680880
vt 0.201078 0.319120
vt 0.233489 0.319120
vt 0.412694 0.319120
vt 0.445105 0.319120
vt 0.233489 0.319120
vt 0.201078 0.319120
vt 0.412694 0.680880
vt 0.201078 0.680880
vt 0.233489 0.680880
vt 0.342361 0.319120
vt 0.445105 0.319120
vt 0.412694 0.319120
vt 0.342361 0.680880
vt 0.412694 0.680880
vt 0.445105 0.680880
vt 0.309951 0.319120
vt 0.342361 0.319120
vt 0.342361 0.680880
vt 0.309951 0.680880
vt 0.553977 0.319120
vt 0.483336 0.319120
vt 0.553977 0.680880
vt 0.521567 0.680880
vt 0.483336 0.680880
vt 0.271720 0.319120
vt 0.271720 0.680880
vt 0.483336 0.387600
vt 0.453719 0.228175
vt 0.428612 0.228175
vt 0.514480 0.771825
vt 0.483336 0.771825
vt 0.428612 0.771825
vt 0.453719 0.771825
vt 0.446699 0.228175
vt 0.483336 0.228175
vt 0.446699 0.771825
vt 0.483336 0.771825
vt 0.428612 0.228175
vt 0.512952 0.228175
vt 0.428612 0.771825
vt 0.512952 0.771825
vt 0.301336 0.228175
vt 0.326444 0.228175
vt 0.538060 0.228175
vt 0.326444 0.771825
vt 0.301336 0.771825
vt 0.301336 0.228175
vt 0.271720 0.228175
vt 0.538060 0.771825
vt 0.271720 0.228175
vt 0.271720 0.771825
vt 0.301336 0.771825
vt 0.242103 0.228175
vt 0.225518 0.228175
vt 0.271720 0.771825
vt 0.326444 0.228175
vt 0.225518 0.771825
vt 0.242103 0.771825
vt 0.242103 0.228175
vt 0.326444 0.771825
vt 0.538060 0.228175
vt 0.225518 0.228175
vt 0.538060 0.771825
vt 0.554836 0.771825
vt 0.554836 0.228175
vt 0.411835 0.771825
vt 0.411835 0.228175
vt 0.401356 0.512002
vt 0.401356 0.490289
vt 0.388809 0.612400
vt 0.388809 0.387600
vt 0.401356 0.387600
vt 0.401356 0.612400
vt 0.507555 0.612400
vt 0.507555 0.387600
vt 0.379842 0.468988
vt 0.388809 0.487783
vt 0.379842 0.555016
vt 0.388809 0.536221
vt 0.459117 0.387600
vt 0.459117 0.612400
vt 0.401356 0.533715
vt 0.693650 0.538140
vt 0.693650 0.512002
vt 0.401356 0.512002
vt 0.401356 0.490289
vt 0.693650 0.485864
vt 0.693650 0.512002
vt 0.401356 0.533715
vt 0.388809 0.387600
vt 0.388809 0.612400
vt 0.401356 0.612400
vt 0.401356 0.387600
vt 0.693650 0.485864
vt 0.711237 0.512002
vt 0.711237 0.479530
vt 0.693650 0.612400
vt 0.693650 0.387600
vt 0.711237 0.387600
vt 0.711237 0.612400
vt 0.693650 0.538140
vt 0.693650 0.612400
vt 0.693650 0.387600
vt 0.711237 0.544473
vt 0.731147 0.544473
vt 0.731147 0.512002
vt 0.711237 0.512002
vt 0.711237 0.479530
vt 0.731147 0.479530
vt 0.731147 0.512002
vt 0.711237 0.544473
vt 0.711237 0.612400
vt 0.711237 0.387600
vt 0.731147 0.544473
vt 0.734996 0.512376
vt 0.734996 0.537417
vt 0.731147 0.479530
vt 0.734996 0.512376
vt 0.734996 0.487336
vt 0.731147 0.387600
vt 0.731147 0.612400
vt 0.731147 0.612400
vt 0.731147 0.387600
vt 0.734996 0.612400
vt 0.757543 0.612400
vt 0.840869 0.612400
vt 0.863415 0.612400
vt 0.734996 0.537417
vt 0.863415 0.537417
vt 0.863415 0.512376
vt 0.515807 0.387600
vt 0.515807 0.612400
vt 0.508750 0.612400
vt 0.508750 0.387600
vt 0.734996 0.487336
vt 0.450864 0.612400
vt 0.450864 0.387600
vt 0.458669 0.387600
vt 0.458669 0.612400
vt 0.508750 0.387600
vt 0.508750 0.612400
vt 0.503366 0.612400
vt 0.503366 0.387600
vt 0.863415 0.537417
vt 0.863415 0.512376
vt 0.866909 0.512376
vt 0.866909 0.532032
vt 0.863415 0.487336
vt 0.734996 0.387600
vt 0.734996 0.612400
vt 0.863415 0.612400
vt 0.863415 0.387600
vt 0.863415 0.487336
vt 0.483710 0.612400
vt 0.483710 0.387600
vt 0.464054 0.612400
vt 0.464054 0.387600
vt 0.866909 0.492720
vt 0.866909 0.532032
vt 0.866909 0.512376
vt 0.458669 0.612400
vt 0.458669 0.387600
vt 0.866909 0.492720
vt 0.458669 0.612400
vt 0.458669 0.387600
vt 0.416295 0.387600
vt 0.416295 0.612400
vt 0.734996 0.387600
vt 0.757543 0.387600
vt 0.863415 0.387600
vt 0.840869 0.387600
vt 0.757543 0.612400
vt 0.765827 0.612400
vt 0.832585 0.612400
vt 0.840869 0.612400
vt 0.840869 0.487336
vt 0.757543 0.487336
vt 0.757543 0.444961
vt 0.840869 0.444961
vt 0.458669 0.387600
vt 0.458669 0.612400
vt 0.416295 0.612400
vt 0.416295 0.387600
vt 0.757543 0.487336
vt 0.840869 0.487336
vt 0.840869 0.444961
vt 0.757543 0.444961
vt 0.765827 0.444961
vt 0.832585 0.444961
vt 0.832585 0.427432
vt 0.765827 0.427432
vt 0.840869 0.387600
vt 0.832585 0.387600
vt 0.765827 0.387600
vt 0.757543 0.387600
vt 0.416295 0.612400
vt 0.416295 0.387600
vt 0.398766 0.387600
vt 0.398766 0.612400
vt 0.832585 0.444961
vt 0.765827 0.444961
vt 0.765827 0.427432
vt 0.832585 0.427432
vt 0.416295 0.387600
vt 0.416295 0.612400
vt 0.398766 0.612400
vt 0.398766 0.387600
vt 0.398766 0.387600
vt 0.398766 0.612400
vt 0.373863 0.612400
vt 0.373863 0.387600
vt 0.832585 0.387600
vt 0.832585 0.612400
vt 0.850452 0.612400
vt 0.850452 0.387600
vt 0.765827 0.612400
vt 0.765827 0.387600
vt 0.747959 0.387600
vt 0.747959 0.612400
vt 0.850452 0.387600
vt 0.850452 0.612400
vt 0.818990 0.612400
vt 0.818990 0.387600
vt 0.747959 0.612400
vt 0.747959 0.387600
vt 0.778225 0.387600
vt 0.778225 0.612400
vt 0.778225 0.402529
vt 0.747959 0.402529
vt 0.747959 0.427432
vt 0.850452 0.427432
vt 0.850452 0.402529
vt 0.818990 0.402529
vt 0.818990 0.419862
vt 0.778225 0.419862
vt 0.398766 0.612400
vt 0.398766 0.387600
vt 0.373863 0.387600
vt 0.373863 0.612400
vt 0.850452 0.402529
vt 0.850452 0.427432
vt 0.747959 0.427432
vt 0.747959 0.402529
vt 0.778225 0.402529
vt 0.778225 0.419862
vt 0.818990 0.419862
vt 0.818990 0.402529
vn 0.0000 0.0000 1.0000
vn 0.0000 0.0000 -1.0000
vn 0.0000 -1.0000 0.0000
vn -0.5573 0.8303 -0.0000
vn 0.5573 0.8303 0.0000
vn 0.5462 0.7632 -0.3452
vn -0.5462 0.7632 -0.3452
vn 0.5663 0.5489 -0.6149
vn -0.5663 0.5489 -0.6149
vn 0.5711 0.3450 -0.7449
vn -0.5711 0.3450 -0.7449
vn 0.9770 -0.0000 -0.2131
vn 1.0000 -0.0000 -0.0000
vn -0.5711 -0.3450 -0.7449
vn -0.9770 0.0000 -0.2131
vn -1.0000 0.0000 0.0000
vn 0.5711 -0.3450 -0.7449
vn 0.5663 -0.5489 -0.6149
vn -0.5663 -0.5489 -0.6149
vn 0.5412 -0.7712 -0.3353
vn -0.5412 -0.7712 -0.3353
vn 0.5558 -0.8313 -0.0000
vn -0.5558 -0.8313 0.0000
vn 0.5412 -0.7712 0.3353
vn -0.5412 -0.7712 0.3353
vn 0.5544 -0.5336 0.6386
vn -0.5544 -0.5336 0.6386
vn 0.5501 -0.2729 0.7893
vn -0.5501 -0.2729 0.7893
vn 0.5480 -0.0000 0.8365
vn -0.5480 0.0000 0.8365
vn 0.5501 0.2729 0.7893
vn -0.5501 0.2729 0.7893
vn 0.5544 0.5336 0.6386
vn -0.5544 0.5336 0.6386
vn -0.9630 0.2423 -0.1179
vn -0.9620 0.2729 0.0000
vn 0.5462 0.7632 0.3452
vn -0.5462 0.7632 0.3452
vn -0.9649 0.1606 0.2080
vn -0.9677 0.0702 0.2420
vn -0.9617 0.0815 -0.2618
vn -0.9583 0.0003 -0.2858
vn -0.9922 0.0003 -0.1249
vn -0.9858 0.0500 -0.1601
vn 0.9649 -0.1606 0.2080
vn 0.9633 -0.2415 0.1174
vn 0.9780 -0.1797 0.1057
vn 0.9810 -0.1145 0.1564
vn 0.9583 0.0003 -0.2858
vn 0.9621 -0.0807 -0.2604
vn 0.9677 0.0702 0.2420
vn 0.9649 0.1606 0.2080
vn 0.9620 0.2729 0.0000
vn 0.9630 0.2423 -0.1179
vn -0.9649 -0.1606 0.2080
vn -0.9633 -0.2415 0.1174
vn -0.9634 -0.1730 -0.2049
vn -0.9621 -0.0807 -0.2604
vn -0.9643 0.2372 0.1180
vn 0.9634 -0.1730 -0.2049
vn 0.9643 0.2372 0.1180
vn -0.9642 0.1702 -0.2035
vn -0.9677 -0.0702 0.2420
vn 0.9642 0.1702 -0.2035
vn 0.9677 -0.0702 0.2420
vn -0.9620 -0.2466 -0.1173
vn 0.9620 -0.2466 -0.1173
vn -0.9691 0.0000 0.2466
vn 0.9617 0.0815 -0.2618
vn 0.9691 -0.0000 0.2466
vn -0.9594 -0.2820 0.0000
vn 0.9594 -0.2820 -0.0000
vn -0.9895 -0.0205 0.1430
vn -0.9810 -0.1145 0.1564
vn 0.9858 0.0500 -0.1601
vn 0.9922 0.0003 -0.1249
vn 0.9895 -0.0205 0.1430
vn -0.9832 -0.0637 -0.1714
vn -0.9918 0.0000 0.1281
vn 0.9832 -0.0637 -0.1714
vn 0.9918 -0.0000 0.1281
vn -0.9719 -0.1436 -0.1865
vn -0.9895 0.0205 0.1430
vn 0.9719 -0.1436 -0.1865
vn 0.9895 0.0205 0.1430
vn -0.9753 -0.1954 -0.1033
vn -0.9810 0.1145 0.1564
vn 0.9753 -0.1954 -0.1033
vn -0.9753 0.1954 -0.1033
vn -0.9770 0.2132 0.0000
vn 0.9810 0.1145 0.1564
vn -0.9770 -0.2132 0.0000
vn 0.9770 0.2132 0.0000
vn 0.9753 0.1954 -0.1033
vn -0.9780 0.1797 0.1057
vn 0.9770 -0.2132 -0.0000
vn -0.9739 0.1344 -0.1830
vn 0.9780 0.1797 0.1057
vn -0.9780 -0.1797 0.1057
vn 0.9739 0.1344 -0.1830
vn 0.0000 -0.8442 -0.5360
vn 0.0000 -0.5157 -0.8568
vn 0.0000 0.0656 -0.9978
vn 0.0000 -0.0656 -0.9978
vn 0.0000 0.5157 -0.8568
vn 0.0000 0.8442 -0.5360
vn 0.0000 1.0000 -0.0000
vn 0.0000 0.8948 0.4464
vn 0.0000 0.6234 0.7819
vn 0.0000 0.0586 0.9983
vn 0.0000 0.0274 0.9996
vn 0.0000 0.0174 0.9998
vn 0.0000 -0.5847 0.8113
vn 0.0000 -0.8948 0.4464
vn 0.0000 -0.7519 -0.6593
vn 0.0000 -0.9939 -0.1105
vn 0.0000 0.7519 -0.6593
vn 0.0000 0.9939 -0.1105
vn 0.0000 -0.9765 0.2154
vn 0.0000 -0.9785 0.2063
vn 0.0000 0.9765 0.2154
vn 0.0000 0.9785 0.2063
vn 0.0000 -0.8286 -0.5598
vn 0.0000 0.8386 -0.5447
vn -0.0000 -0.8567 -0.5158
vn 0.0000 0.8567 -0.5158
vn 0.0000 0.2410 -0.9705
vn -0.0000 -0.2410 -0.9705
usemtl None
s off
f 172/1/1 176/2/1 173/3/1 169/4/1
f 171/5/2 170/6/2 174/7/2 175/8/2
f 175/9/3 174/10/3 173/11/3 176/12/3
s 1
f 1/13/4 2/14/5 4/15/6 3/16/7
f 3/16/7 4/15/6 6/17/8 5/18/9
f 5/19/9 6/20/8 8/21/10 7/22/11
f 8/23/10 10/24/12 100/25/13 97/26/13
f 11/27/14 9/28/15 99/29/16 101/30/16
f 11/31/14 12/32/17 14/33/18 13/34/19
f 13/35/19 14/36/18 16/37/20 15/38/21
f 15/38/21 16/37/20 18/39/22 17/40/23
f 17/40/23 18/39/22 20/41/24 19/42/25
f 19/42/25 20/41/24 22/43/26 21/44/27
f 21/45/27 22/46/26 24/47/28 23/48/29
f 23/48/29 24/47/28 26/49/30 25/50/31
f 25/50/31 26/49/30 28/51/32 27/52/33
f 27/52/33 28/51/32 30/53/34 29/54/35
f 1/13/4 3/16/7 34/55/36 33/56/37
f 29/57/35 30/58/34 32/59/38 31/60/39
f 31/60/39 32/59/38 2/14/5 1/13/4
f 27/52/33 29/54/35 61/61/40 59/62/41
f 39/63/42 41/64/43 73/65/44 71/66/45
f 54/67/46 52/68/47 84/69/48 86/70/49
f 12/32/17 10/71/12 42/72/50 44/73/51
f 30/53/34 28/51/32 60/74/52 62/75/53
f 4/15/6 2/14/5 36/76/54 35/77/55
f 19/42/25 21/44/27 53/78/56 51/79/57
f 22/43/26 20/41/24 52/68/47 54/67/46
f 11/31/14 13/34/19 45/80/58 43/81/59
f 29/57/35 31/60/39 63/82/60 61/83/40
f 14/33/18 12/32/17 44/73/51 46/84/61
f 32/59/38 30/58/34 62/85/53 64/86/62
f 3/16/7 5/18/9 37/87/63 34/55/36
f 21/45/27 23/48/29 55/88/64 53/89/56
f 6/17/8 4/15/6 35/77/55 38/90/65
f 24/47/28 22/46/26 54/91/46 56/92/66
f 13/35/19 15/38/21 47/93/67 45/94/58
f 31/60/39 1/13/4 33/56/37 63/82/60
f 16/37/20 14/36/18 46/95/61 48/96/68
f 2/14/5 32/59/38 64/86/62 36/76/54
f 5/19/9 7/22/11 39/63/42 37/97/63
f 23/48/29 25/50/31 57/98/69 55/88/64
f 8/21/10 6/20/8 38/99/65 40/100/70
f 26/49/30 24/47/28 56/92/66 58/101/71
f 15/38/21 17/40/23 49/102/72 47/93/67
f 18/39/22 16/37/20 48/96/68 50/103/73
f 7/22/11 9/104/15 41/64/43 39/63/42
f 25/50/31 27/52/33 59/62/41 57/98/69
f 10/71/12 8/21/10 40/100/70 42/72/50
f 28/51/32 26/49/30 58/101/71 60/74/52
f 17/40/23 19/42/25 51/79/57 49/102/72
f 20/41/24 18/39/22 50/103/73 52/68/47
f 9/104/15 11/31/14 43/81/59 41/64/43
f 53/89/56 55/88/64 87/105/74 85/106/75
f 42/72/50 40/100/70 72/107/76 74/108/77
f 56/92/66 54/91/46 86/109/49 88/110/78
f 41/64/43 43/81/59 75/111/79 73/65/44
f 55/88/64 57/98/69 89/112/80 87/105/74
f 44/73/51 42/72/50 74/108/77 76/113/81
f 58/101/71 56/92/66 88/110/78 90/114/82
f 43/81/59 45/80/58 77/115/83 75/111/79
f 57/98/69 59/62/41 91/116/84 89/112/80
f 46/84/61 44/73/51 76/113/81 78/117/85
f 60/74/52 58/101/71 90/114/82 92/118/86
f 45/94/58 47/93/67 79/119/87 77/120/83
f 59/62/41 61/61/40 93/121/88 91/116/84
f 48/96/68 46/95/61 78/122/85 80/123/89
f 33/56/37 34/55/36 66/124/90 65/125/91
f 62/75/53 60/74/52 92/118/86 94/126/92
f 47/93/67 49/102/72 81/127/93 79/119/87
f 35/77/55 36/76/54 68/128/94 67/129/95
f 61/83/40 63/82/60 95/130/96 93/131/88
f 50/103/73 48/96/68 80/123/89 82/132/97
f 34/55/36 37/87/63 69/133/98 66/124/90
f 64/86/62 62/85/53 94/134/92 96/135/99
f 49/102/72 51/79/57 83/136/100 81/127/93
f 38/90/65 35/77/55 67/129/95 70/137/101
f 63/82/60 33/56/37 65/125/91 95/130/96
f 52/68/47 50/103/73 82/132/97 84/69/48
f 37/97/63 39/63/42 71/66/45 69/138/98
f 36/76/54 64/86/62 96/135/99 68/128/94
f 51/79/57 53/78/56 85/139/75 83/136/100
f 40/100/70 38/99/65 70/140/101 72/107/76
f 68/128/3 96/135/102 95/130/102 65/125/3
f 96/141/102 94/126/103 93/121/103 95/142/102
f 94/126/103 92/118/104 91/116/104 93/121/103
f 92/118/104 90/114/2 89/112/2 91/116/104
f 90/114/2 88/110/105 87/105/105 89/112/2
f 88/110/105 86/109/106 85/106/106 87/105/105
f 86/109/106 84/143/107 83/144/107 85/106/106
f 84/69/107 82/132/108 81/127/108 83/136/107
f 82/132/108 80/123/109 79/119/109 81/127/108
f 80/123/109 78/122/110 77/120/110 79/119/109
f 78/117/110 76/113/111 75/111/111 77/115/110
f 76/113/111 74/108/112 73/65/112 75/111/111
f 74/108/112 72/107/113 71/66/113 73/65/112
f 72/107/113 70/140/114 69/138/114 71/66/113
f 70/137/114 67/129/115 66/124/115 69/133/114
f 67/129/115 68/128/3 65/125/3 66/124/115
f 101/30/16 99/29/16 105/145/16 107/146/16
f 102/147/116 101/148/116 107/149/117 108/150/117
f 7/22/11 8/21/10 97/151/118 98/152/118
f 10/24/12 12/153/17 102/154/13 100/25/13
f 9/28/15 7/155/11 98/156/16 99/29/16
f 12/32/17 11/31/14 101/157/116 102/158/116
f 105/145/16 104/159/16 110/160/16 111/161/16
f 106/162/13 108/163/13 114/164/13 112/165/13
f 97/26/13 100/25/13 106/162/13 103/166/13
f 98/167/118 97/168/118 103/169/119 104/170/119
f 100/25/13 102/154/13 108/163/13 106/162/13
f 99/29/16 98/156/16 104/159/16 105/145/16
f 113/171/16 111/161/16 117/172/16 119/173/16
f 114/174/120 113/175/120 119/176/121 120/177/121
f 108/150/117 107/149/117 113/175/120 114/174/120
f 107/146/16 105/145/16 111/161/16 113/171/16
f 103/166/13 106/162/13 112/165/13 109/178/13
f 104/170/119 103/169/119 109/179/122 110/180/122
f 117/172/16 116/181/16 122/182/16 123/183/16
f 118/184/13 120/185/13 126/186/13 124/187/13
f 109/178/13 112/165/13 118/184/13 115/188/13
f 110/180/122 109/179/122 115/189/123 116/190/123
f 112/165/13 114/164/13 120/185/13 118/184/13
f 111/161/16 110/160/16 116/181/16 117/172/16
f 121/191/13 124/187/13 130/192/13 127/193/13
f 125/194/16 123/183/16 129/195/16 131/196/16
f 120/177/121 119/176/121 125/197/124 126/198/124
f 119/173/16 117/172/16 123/183/16 125/194/16
f 115/188/13 118/184/13 124/187/13 121/191/13
f 116/190/123 115/189/123 121/199/125 122/200/125
f 132/201/108 145/202/108 147/203/108
f 138/204/126 132/201/3 147/203/3
f 129/195/16 128/205/16 134/206/16 135/207/16
f 122/208/125 121/209/125 127/210/125 128/211/125
f 124/187/13 126/186/13 132/212/13 130/192/13
f 123/183/16 122/182/16 128/205/16 129/195/16
f 126/213/124 125/214/124 131/215/124 132/216/124
f 134/217/127 133/218/127 139/219/128 140/220/128
f 133/221/13 136/222/13 142/223/13 139/224/13
f 131/196/16 129/195/16 135/207/16 137/225/16
f 127/193/13 130/192/13 136/222/13 133/221/13
f 128/226/125 127/227/125 133/228/127 134/229/127
f 130/192/13 132/212/13 138/230/13 136/222/13
f 140/220/128 139/219/128 142/231/2 141/232/2
f 141/232/2 142/231/2 144/233/129 143/234/129
f 136/222/13 138/230/13 144/235/13 142/223/13
f 135/207/16 134/206/16 140/236/16 141/237/16
f 138/238/126 137/239/126 143/234/129 144/233/129
f 137/225/16 135/207/16 141/237/16 143/240/16
f 145/241/1 146/242/1 150/243/1 149/244/1
f 132/201/124 131/245/124 146/246/3 145/202/3
f 131/245/124 137/247/3 146/246/3
f 137/247/108 148/248/108 146/246/108
f 137/247/126 138/204/126 147/203/3 148/248/3
f 149/249/108 153/250/108 155/251/108
f 151/252/3 149/249/3 155/251/3
f 147/253/13 145/254/13 149/255/13 151/256/13
f 148/257/2 147/258/2 151/259/2 152/260/2
f 146/261/16 148/262/16 152/263/16 150/264/16
f 154/265/16 156/266/16 160/267/16 158/268/16
f 152/269/3 151/252/3 155/251/3 156/270/3
f 152/269/108 156/270/108 154/271/108
f 150/272/3 152/269/3 154/271/3
f 149/249/3 150/272/3 154/271/3 153/250/3
f 153/273/1 154/274/1 158/275/1 157/276/1
f 155/277/13 153/278/13 157/279/13 159/280/13
f 156/281/2 155/282/2 159/283/2 160/284/2
f 164/285/2 163/286/2 167/287/2 168/288/2
f 160/289/108 159/290/108 163/291/108 164/292/108
f 157/293/108 158/294/108 162/295/108 161/296/108
f 168/297/3 167/298/3 172/299/3 169/300/3
f 165/301/3 166/302/3 170/303/3 171/304/3
f 170/305/16 166/306/16 162/307/16 164/308/16 168/309/16 169/310/16 173/311/16 174/312/16
f 161/313/1 162/314/1 166/315/1 165/316/1
f 167/317/13 163/318/13 161/319/13 165/320/13 171/321/13 175/322/13 176/323/13 172/324/13
